<svg xmlns="http://www.w3.org/2000/svg" viewBox="0 0 400 520" preserveAspectRatio="xMidYMid slice"><defs><linearGradient id="bg" x1="0" y1="0" x2="1" y2="1"><stop stop-color="#2b1908"/><stop offset=".55" stop-color="#714113"/><stop offset="1" stop-color="#120b05"/></linearGradient><radialGradient id="amber"><stop stop-color="#f2b04c" stop-opacity=".75"/><stop offset="1" stop-color="#f2b04c" stop-opacity="0"/></radialGradient></defs><rect width="400" height="520" fill="url(#bg)"/><circle cx="315" cy="120" r="190" fill="url(#amber)"/><path d="M25 400C80 330 84 240 138 180c30 80 22 140-36 208-32 36-53 49-77 71Z" fill="#3d2610"/><path d="M322 395C286 310 297 250 349 192c29 80 19 141-27 203Z" fill="#563215"/><g fill="#c67c1f" opacity=".8"><circle cx="90" cy="420" r="15"/><circle cx="118" cy="447" r="10"/><circle cx="330" cy="432" r="12"/></g><rect x="124" y="150" width="152" height="252" rx="38" fill="#121312" stroke="#c58e37" stroke-opacity=".45"/><rect x="163" y="98" width="74" height="55" rx="11" fill="#161616"/><rect x="181" y="66" width="38" height="36" rx="6" fill="#806b4f"/><rect x="143" y="232" width="114" height="73" rx="7" fill="#0c0c0b" stroke="#d2a45d" stroke-opacity=".75"/><text x="200" y="263" text-anchor="middle" fill="#e1ba72" font-family="Georgia,serif" font-size="18" letter-spacing="3">JESSY</text><text x="200" y="284" text-anchor="middle" fill="#e1ba72" font-family="Arial,sans-serif" font-size="10" letter-spacing="3">LUXURY</text></svg>