<svg xmlns="http://www.w3.org/2000/svg" viewBox="0 0 400 520"><defs><linearGradient id="b" x2="1" y2="1"><stop stop-color="#2b170d"/><stop offset=".48" stop-color="#bc7b4e"/><stop offset="1" stop-color="#3a2114"/></linearGradient><linearGradient id="g"><stop stop-color="#ffe4d5" stop-opacity=".55"/><stop offset="1" stop-color="#b56c46" stop-opacity=".12"/></linearGradient></defs><rect width="400" height="520" fill="url(#b)"/><path d="M0 126C93 80 177 120 400 38v150C287 128 170 169 0 220Z" fill="#f6d8c7" opacity=".13"/><ellipse cx="200" cy="446" rx="108" ry="30" fill="#29130d" opacity=".52"/><rect x="116" y="154" width="168" height="278" rx="40" fill="url(#g)" stroke="#f8dbc8" stroke-opacity=".42"/><path d="M145 179c17-11 35-16 54-16h20v239h-39c-19 0-35-15-35-34Z" fill="#fff" opacity=".15"/><rect x="155" y="100" width="90" height="70" rx="13" fill="#d5d0c8"/><rect x="181" y="63" width="38" height="38" rx="7" fill="#d6bd8b"/><rect x="139" y="246" width="122" height="82" rx="8" fill="#814f48" stroke="#f6d7c6" stroke-opacity=".5"/><text x="200" y="281" text-anchor="middle" fill="#ffe7d7" font-family="Georgia" font-size="22" letter-spacing="4">JESSY</text><text x="200" y="302" text-anchor="middle" fill="#ffe7d7" font-family="Arial" font-size="10" letter-spacing="4">LUXURY</text><text x="200" y="350" text-anchor="middle" fill="#fff0e8" opacity=".86" font-family="Arial" font-size="8" letter-spacing="2">SWEET · GOURMAND</text><g fill="#e6aa4c" opacity=".7"><circle cx="73" cy="412" r="14"/><circle cx="322" cy="421" r="18"/><circle cx="344" cy="390" r="10"/></g></svg>